<?xml version="1.0" encoding="utf-8"?>
<!-- Generator: Adobe Illustrator 26.5.0, SVG Export Plug-In . SVG Version: 6.00 Build 0)  -->
<svg version="1.1" id="Capa_1" xmlns="http://www.w3.org/2000/svg" xmlns:xlink="http://www.w3.org/1999/xlink" x="0px" y="0px"
	 viewBox="0 0 384 384" style="enable-background:new 0 0 384 384;" xml:space="preserve">
<style type="text/css">
	.st0{fill:#A7AAAB;}
	.st1{fill:#FFFFFF;}
</style>
<path class="st0" d="M357.7,384H26.3C11.8,384,0,372.2,0,357.7V26.3C0,11.8,11.8,0,26.3,0h331.4C372.2,0,384,11.8,384,26.3v331.4
	C384,372.2,372.2,384,357.7,384z"/>
<g>
	<g>
		<path class="st1" d="M144.1,190.9c0-51.4,0-102.7,0-154.1c0-9,4.5-13.5,13.5-13.5c23.1,0,46.1,0,69.2,0c8.2,0,13,4.7,13,12.9
			c0,103.1,0,206.2,0,309.2c0,8.2-4.8,13-13,13c-23.2,0-46.4,0-69.5,0c-8.5,0-13.2-4.7-13.2-13.1
			C144.2,293.9,144.2,242.4,144.1,190.9L144.1,190.9z"/>
		<path class="st1" d="M263.8,238.7c0-35.4,0-70.8,0-106.2c0-8.8,4.5-13.4,13.3-13.4c23.2,0,46.4,0,69.5,0c8.2,0,12.9,4.8,12.9,13
			c0,71.2,0,142.3,0,213.5c0,8-4.8,12.8-12.7,12.8c-23.4,0-46.8,0-70.3,0c-7.9,0-12.7-4.9-12.7-12.8
			C263.8,310,263.8,274.3,263.8,238.7L263.8,238.7z"/>
		<path class="st1" d="M24.5,286.7c0-19.6,0-39.1,0-58.7c0-8.5,4.6-13.1,13.2-13.1c23.2,0,46.4,0,69.5,0c8.2,0,13,4.7,13,12.9
			c0,39.3,0,78.5,0,117.8c0,8.2-4.8,12.9-13,12.9c-23.3,0-46.6,0-69.9,0c-8,0-12.8-4.8-12.8-12.7C24.5,326.1,24.5,306.4,24.5,286.7
			L24.5,286.7z"/>
	</g>
</g>
</svg>
