<?xml version="1.0" encoding="utf-8"?>
<!-- Generator: Adobe Illustrator 26.5.0, SVG Export Plug-In . SVG Version: 6.00 Build 0)  -->
<svg version="1.1" id="Capa_1" xmlns="http://www.w3.org/2000/svg" xmlns:xlink="http://www.w3.org/1999/xlink" x="0px" y="0px"
	 viewBox="0 0 512 512" style="enable-background:new 0 0 512 512;" xml:space="preserve">
<style type="text/css">
	.st0{fill:#A7AAAB;}
	.st1{fill:#FFFFFF;}
</style>
<g>
	<path class="st0" d="M485.7,512H26.3C11.8,512,0,500.2,0,485.7V26.3C0,11.8,11.8,0,26.3,0h459.3C500.2,0,512,11.8,512,26.3v459.3
		C512,500.2,500.2,512,485.7,512z"/>
	<g>
		<path class="st1" d="M149.2,425.7c-43.6,0-79.1-35.9-79-80c0-43.2,36.1-78.8,79.8-78.7c44.7,0.1,80,37.8,79,81
			C228,391,191.4,426.7,149.2,425.7z"/>
		<path class="st1" d="M441.6,346.8c0.2,43.3-37.4,81.5-84.1,78.9c-40.1-2.2-76.1-36.7-74.7-81.8c1.4-44.3,38.6-78.9,82.5-77
			C408,268.8,441.9,304.3,441.6,346.8z"/>
		<path class="st1" d="M176.7,154.3c-0.1-43,35.8-78.8,79.1-78.9c43.7-0.1,79.5,36.2,79.5,80.3c-0.1,42.8-35.9,79-79.3,78.8
			C208.6,234.4,176.4,195.6,176.7,154.3z"/>
	</g>
</g>
</svg>
