<?xml version="1.0" encoding="utf-8"?>
<!-- Generator: Adobe Illustrator 26.5.0, SVG Export Plug-In . SVG Version: 6.00 Build 0)  -->
<svg version="1.1" id="Capa_1" xmlns="http://www.w3.org/2000/svg" xmlns:xlink="http://www.w3.org/1999/xlink" x="0px" y="0px"
	 viewBox="0 0 384 384" style="enable-background:new 0 0 384 384;" xml:space="preserve">
<style type="text/css">
	.st0{fill:#FFFFFF;}
	.st1{fill:#A7AAAB;}
</style>
<path class="st0" d="M348.1,384c2-0.6,4-1.1,6-1.7c17-5.1,29.2-21.3,29.2-39.2c0-100.5,0-201,0-301.6c0-22.3-18.5-40.7-40.7-40.7
	c-100.5-0.1-201.1,0-301.6,0c-19.5,0-36.3,14-40.2,33.1c-0.1,0.7-0.5,1.3-0.8,2C0,23.9,0,12,0,0c128,0,255.9,0,384,0v384H348.1z"/>
<path class="st0" d="M0,348.8c0.3,1,0.6,2.1,0.9,3.1c4.7,16.9,15.4,27.5,32.6,31.4c0.6,0.1,1.1,0.5,1.6,0.7H0
	C0,372.3,0,360.5,0,348.8z"/>
<g>
	<path class="st1" d="M357.7,383.9H26.3C11.8,383.9,0,372.1,0,357.6V26.2C0,11.7,11.8-0.1,26.3-0.1h331.4
		c14.5,0,26.3,11.8,26.3,26.3v331.4C384,372.1,372.2,383.9,357.7,383.9z"/>
	<g>
		<path class="st0" d="M263.7,149.3c26.4,18.9,28.2,51.4,13.2,72.5c-13.9,19.6-47.8,31.4-76.4,8.3c-0.1,1.4-0.2,2.6-0.2,3.7
			c0,14.2,0,28.4,0,42.7c-0.1,25.6-19.7,48.2-44.2,51c-27.4,3.1-51.4-12.9-57.2-39.2c-4.4-20.1,1.8-37.1,17.4-50.6
			c1.2-1,2.5-2,4.1-3.2c-14.5-10.6-22.7-24.5-22.7-42.5c0-18.1,8-32,20.9-41.4c-3.2-4-6.6-8.1-9.9-12.3c-24-30.6-6.9-75.3,31.4-81.8
			c2.9-0.5,6-0.7,8.9-0.7c28.7-0.1,57.4-0.1,86.1,0c24.6,0.1,44.9,15.8,50.1,39.6c4.5,20.2-1.8,37.3-17.5,50.9
			c-0.6,0.5-1.2,0.9-1.8,1.4C265.2,148.2,264.6,148.6,263.7,149.3z M183.6,157.6c-9.6,0-18.8-0.1-28,0c-4.5,0-9,0-13.4,0.7
			c-16.2,2.5-28.1,17-28.1,33.7c0,16.7,11.9,31.8,28.2,33.4c13.4,1.4,27.1,0.6,40.7,0.8c0.2,0,0.4-0.3,0.6-0.5
			C183.6,203.2,183.6,180.7,183.6,157.6z M183.5,72.8c-0.5-0.2-0.9-0.4-1.2-0.4c-11.7,0-23.4-0.4-35.1,0.1
			c-17.7,0.9-32.1,14.6-33,30.8c-1.1,19.2,10.2,34.3,29.1,37.3c6.9,1.1,14.2,0.4,21.3,0.5c6.3,0.1,12.6,0,19,0
			C183.5,118,183.5,95.4,183.5,72.8z M200.4,141.1c10.7,0,21.1,0.1,31.5,0c3.7,0,7.5-0.1,11.1-0.8c15.1-3.1,27.9-17.4,26.8-35.9
			c-0.9-15.3-13.6-30-29.2-31.2c-13.1-1-26.4-0.5-39.6-0.6c-0.2,0-0.4,0.2-0.8,0.5C200.4,95.4,200.4,117.9,200.4,141.1z
			 M183.1,242.9c-11.6,0-23.6-0.1-35.5,0c-20.4,0.2-36.4,19.1-33.2,39.4c2.6,16.6,17.3,29.2,34.2,29.3c16.7,0.1,32.5-12.1,34.3-28.5
			C184.2,270,183.1,256.7,183.1,242.9z M269.9,191.9c0-19.2-15.5-34.3-35-34.3c-19.2,0.1-34.6,15.4-34.6,34.3
			c0,19.1,15.5,34.5,34.9,34.5C254.6,226.4,270,211.2,269.9,191.9z"/>
		<path class="st1" d="M183.6,157.6c0,23.1,0,45.6,0,68.1c-0.2,0.2-0.4,0.5-0.6,0.5c-13.6-0.2-27.2,0.6-40.7-0.8
			c-16.3-1.7-28.2-16.7-28.2-33.4c0-16.7,11.9-31.2,28.1-33.7c4.4-0.7,8.9-0.7,13.4-0.7C164.8,157.5,174,157.6,183.6,157.6z"/>
		<path class="st1" d="M183.5,72.8c0,22.6,0,45.2,0,68.3c-6.4,0-12.7,0-19,0c-7.1-0.1-14.3,0.6-21.3-0.5
			c-18.8-3-30.2-18.1-29.1-37.3c1-16.2,15.3-29.9,33-30.8c11.7-0.6,23.4-0.1,35.1-0.1C182.7,72.4,183,72.6,183.5,72.8z"/>
		<path class="st1" d="M200.4,141.1c0-23.1,0-45.7,0-68.1c0.4-0.2,0.6-0.5,0.8-0.5c13.2,0.1,26.4-0.4,39.6,0.6
			c15.5,1.2,28.3,15.9,29.2,31.2c1,18.5-11.7,32.9-26.8,35.9c-3.6,0.7-7.4,0.8-11.1,0.8C221.5,141.1,211.1,141.1,200.4,141.1z"/>
		<path class="st1" d="M183.1,242.9c0,13.8,1.1,27.1-0.3,40.2c-1.7,16.4-17.6,28.6-34.3,28.5c-16.9-0.1-31.6-12.7-34.2-29.3
			c-3.2-20.2,12.8-39.2,33.2-39.4C159.5,242.8,171.4,242.9,183.1,242.9z"/>
		<path class="st1" d="M269.9,191.9c0,19.3-15.3,34.5-34.7,34.5c-19.4,0-34.9-15.3-34.9-34.5c0-18.9,15.5-34.2,34.6-34.3
			C254.4,157.5,269.9,172.6,269.9,191.9z"/>
	</g>
</g>
</svg>
