<?xml version="1.0" encoding="utf-8"?>
<!-- Generator: Adobe Illustrator 26.5.0, SVG Export Plug-In . SVG Version: 6.00 Build 0)  -->
<svg version="1.1" id="Capa_1" xmlns="http://www.w3.org/2000/svg" xmlns:xlink="http://www.w3.org/1999/xlink" x="0px" y="0px"
	 viewBox="0 0 384 384" style="enable-background:new 0 0 384 384;" xml:space="preserve">
<style type="text/css">
	.st0{fill:#FFFFFF;}
	.st1{fill:#A7AAAB;}
</style>
<path class="st0" d="M384,64.4c-0.9-3.6-1.6-7.2-2.6-10.8c-8.6-29.3-34.9-49-65.9-49c-54.3-0.1-108.5,0-162.8,0
	c-27.9,0-55.9-0.1-83.8,0c-31.7,0.1-58.4,21-66.1,51.6c-1.3,5-1.9,10.3-1.9,15.5c-0.1,79.9-0.1,159.9-0.1,239.9
	c0,34.1,26.7,63.3,60.7,66.5c3.8,0.4,7.7,0.6,11.6,0.6c80.7,0,161.4,0.1,242.1,0c32.3,0,59-20.6,67-51.5c0.7-2.7,1.3-5.5,2-8.2V384
	H0V0h384V64.4z"/>
<path class="st0" d="M218.5,268.7c-4.9,0-9.7-0.1-14.6,0c-2.7,0.1-4-0.9-4.9-3.5c-3.7-11.1-7.6-22.1-11.3-33.2
	c-0.8-2.4-1.9-3.2-4.5-3.2c-17.6,0.1-35.2,0.1-52.8,0c-2.7,0-3.9,0.7-4.7,3.3c-3.3,10.8-7,21.5-10.3,32.3c-1,3.3-2.7,4.3-5.9,4.2
	c-8.2-0.2-16.5-0.1-24.7-0.1c-5.3,0-5.6-0.4-3.9-5.2c16.5-47.6,33.1-95.1,49.5-142.7c1.9-5.4,2.6-11.3,3.5-17.1
	c0.4-2.3,1-3.3,3.4-3.3c12.6,0.1,25.2,0.1,37.8,0c3,0,3.7,1.7,4.5,3.9c13.7,38.8,27.4,77.6,41.2,116.4c5.1,14.4,10.2,28.8,15.3,43.2
	c1.6,4.6,1.5,4.8-3.5,4.8C228,268.7,223.3,268.7,218.5,268.7L218.5,268.7z M156.7,130.6c-0.3-0.1-0.6-0.1-0.9-0.1
	c-6.5,22-13.1,43.9-19.6,66h40.7C170.1,174.3,163.4,152.4,156.7,130.6z"/>
<path class="st0" d="M289.7,205.1c0,19.7-0.1,39.4,0.1,59.1c0,3.6-1.1,4.7-4.7,4.6c-8.6-0.2-17.2-0.1-25.8-0.1c-5.1,0-5.1,0-5.1-5.3
	c0-28.6,0-57.1,0-85.7c0-10.7,0.1-21.4-0.1-32.2c0-3.1,0.7-4.4,4.2-4.3c9.1,0.2,18.2,0.2,27.3,0c3.4-0.1,4.2,1.1,4.2,4.3
	C289.6,165.4,289.7,185.3,289.7,205.1L289.7,205.1z"/>
<path class="st0" d="M292,107.5c0,11.7-8.1,20.1-19.4,20.2c-12,0.1-20.3-8.1-20.2-20.1c0-11.2,8.6-19.7,20-19.8
	C283.9,87.6,292,95.7,292,107.5L292,107.5z"/>
<g>
	<path class="st1" d="M357.7,383.9H26.3C11.8,383.9,0,372.1,0,357.6V26.2C0,11.7,11.8-0.1,26.3-0.1h331.4
		c14.5,0,26.3,11.8,26.3,26.3v331.4C384,372.1,372.2,383.9,357.7,383.9z"/>
	<g>
		<path class="st0" d="M155.9,100.5c5.9,0,11.7,0.1,17.6-0.1c3-0.1,4.4,0.9,5.4,3.8c17.6,50.1,35.4,100.1,53.1,150.1
			c1.3,3.6,2.5,7.3,3.8,10.9c0.9,2.3,0.6,3.6-2.2,3.6c-10.5,0-21-0.1-31.4,0c-2.7,0-3.3-1.7-3.9-3.6c-3.7-10.9-7.6-21.8-11.2-32.8
			c-0.9-2.6-2.1-3.4-4.8-3.3c-17.6,0.1-35.2,0.1-52.8,0c-2.6,0-3.7,0.8-4.4,3.2c-3.3,10.7-7,21.3-10.2,32c-1,3.4-2.6,4.8-6.3,4.7
			c-8.2-0.3-16.5-0.1-24.7-0.1c-5,0-5.3-0.4-3.7-5.1c14.3-41.1,28.6-82.2,42.8-123.3c3.4-9.7,6.5-19.6,9.6-29.4
			c0.7-2.2,0.6-4.7,0.6-7c0-2.6,1-3.5,3.6-3.5C143.2,100.6,149.6,100.5,155.9,100.5z M176.2,196.6c-6.8-22.3-13.6-44.2-20.3-66.2
			c-0.3,0-0.5,0.1-0.8,0.1c-6.5,21.9-13,43.9-19.6,66C149.3,196.6,162.5,196.6,176.2,196.6z"/>
		<path class="st0" d="M289,205.1c0,19.7-0.1,39.4,0.1,59.1c0,3.6-1.1,4.7-4.7,4.6c-8.7-0.2-17.5-0.3-26.2,0c-4,0.1-4.8-1.5-4.8-5
			c0.1-28.6,0.1-57.1,0.1-85.7c0-10.9,0.1-21.7,0-32.6c0-3.1,0.7-4.4,4.2-4.3c9.1,0.2,18.2,0.2,27.3,0c3.4-0.1,4.2,1.1,4.2,4.3
			C288.9,165.5,289,185.3,289,205.1z"/>
		<path class="st0" d="M291.2,107.7c0,11.6-8.3,20-19.6,19.9c-12,0-20.2-8.3-20-20.3c0.1-11.2,8.9-19.7,20.2-19.6
			C283.4,87.8,291.3,95.9,291.2,107.7z"/>
	</g>
</g>
</svg>
