<?xml version="1.0" encoding="utf-8"?>
<!-- Generator: Adobe Illustrator 26.5.0, SVG Export Plug-In . SVG Version: 6.00 Build 0)  -->
<svg version="1.1" id="Capa_1" xmlns="http://www.w3.org/2000/svg" xmlns:xlink="http://www.w3.org/1999/xlink" x="0px" y="0px"
	 viewBox="0 0 384 384" style="enable-background:new 0 0 384 384;" xml:space="preserve">
<style type="text/css">
	.st0{fill:#FFFFFF;}
	.st1{fill:#A7AAAB;}
</style>
<path class="st0" d="M0,354.1c2.1,7.8,5.3,15,11.6,20.4c6.6,5.7,14.1,8.8,22.8,8.8c104.8,0,209.6,0,314.3,0
	c19.1,0,34.5-15.4,34.5-34.5c0-104.8,0-209.6,0-314.3c0-16.2-11.4-30.2-27.1-33.7c-0.7-0.1-1.4-0.5-2-0.8c10,0,20,0,29.9,0v384
	c-128,0-256,0-384,0C0,374,0,364,0,354.1z"/>
<path class="st0" d="M29.2,0c-8.1,2.2-16,5.3-20.9,12.4C4.8,17.5,2.7,23.6,0,29.2C0,19.5,0,9.8,0,0H29.2z"/>
<path class="st0" d="M154.1,172.9c0-1-0.1-1.5,0-2c2.5-9.5,5.1-18.9,7.6-28.5h58.6c-2.4,11.1-4.7,21.9-7,32.3
	c4.8-5.8,9.4-12.2,14.8-17.8c8.6-8.8,18.6-15.4,31.2-17.1c20.9-2.8,38.6,10.1,43,30.9c3,14.4,0.6,28.2-3.2,42
	c-3.9,13.8-7.6,27.6-11.2,41.4c-0.6,2.5-0.7,5.2-0.5,7.8c0.4,7.1,6.8,10.6,12.8,6.6c2.8-1.9,5.3-4.6,7-7.5
	c2.9-4.9,5.1-10.2,7.8-15.5c4.7,1.8,9.5,3.7,14.5,5.6c-3.8,12.8-8.7,24.7-18.5,33.9c-11.7,11-31.8,13.7-46,6.2
	c-11.2-5.9-15.2-15.9-15.8-27.8c-0.5-10.3,2.8-19.9,5.5-29.6c2.7-9.8,5.8-19.6,8.1-29.5c1.2-5.2,2-10.9,1.5-16.2
	c-1.4-14.7-14-18.6-24.2-17.2c-9.2,1.3-15.8,6.3-20.6,14c-5.4,8.5-7.5,18.1-9.9,27.6c-6.4,25.7-12.9,51.4-19.2,77.1
	c-0.6,2.7-1.6,3.7-4.4,3.6c-11.4-0.2-22.9-0.1-34.8-0.1c2.2-8.9,4.3-17.5,6.4-26c-0.1-0.1-0.3-0.2-0.5-0.3c-1,1.4-2,2.8-3,4.2
	c-8.5,11.6-18.9,20.5-33.4,23.5c-8.1,1.7-16.2,1.4-24-1.3c-11.2-3.9-17.1-12.2-19-23.7c-2.1-12.3,1.2-24,4.1-35.7
	c4.8-19.7,9.7-39.4,14.5-59c0.1-0.5,0.1-1,0.2-1.9H69.6c2.7-10,5.2-19.4,7.9-28.9c0.2-0.7,1.5-1.7,2.3-1.7
	c20.9-0.1,41.9-0.1,63.3-0.1c-2.5,9.8-4.9,19.3-7.2,28.7c-6.4,25.7-12.9,51.3-19.3,77c-0.9,3.7-1.4,7.6-1.7,11.4
	c-0.5,6.9,3.3,10.8,10.3,10.7c11.1-0.2,20.2-5,27.8-12.8c6.3-6.4,10.7-13.9,12.8-22.8c4.8-20.4,10.1-40.8,15.4-61.7L154.1,172.9
	L154.1,172.9z"/>
<path class="st0" d="M127.8,120.7c-13.2,0-23.4-10-23.3-23c0.1-12.7,10.3-22.9,23.2-22.9c12.9,0,23.6,10.5,23.4,23.1
	C151,110.7,140.7,120.7,127.8,120.7z"/>
<g>
	<path class="st1" d="M357.7,384H26.3C11.8,384,0,372.2,0,357.7V26.3C0,11.8,11.8,0,26.3,0h331.4C372.2,0,384,11.8,384,26.3v331.4
		C384,372.2,372.2,384,357.7,384z"/>
	<path class="st0" d="M146.5,179.6h27c-5.2,21-10.5,41.3-15.4,61.8c-2.1,9-6.5,16.4-12.8,22.8c-7.6,7.8-16.7,12.6-27.8,12.8
		c-7,0.1-10.8-3.8-10.3-10.7c0.3-3.8,0.7-7.7,1.7-11.4c6.3-25.7,12.8-51.4,19.3-77.1c2.4-9.5,4.8-18.9,7.2-28.8
		c-21.4,0-42.4,0-63.3,0.1c-0.8,0-2.1,0.9-2.3,1.7c-2.7,9.4-5.2,18.9-7.9,28.9h26.9c-0.1,0.9-0.1,1.4-0.2,1.9
		c-4.8,19.7-9.7,39.4-14.5,59.1c-2.9,11.7-6.1,23.4-4.1,35.8c1.9,11.5,7.8,19.9,19.1,23.8c7.8,2.7,15.9,3,24,1.3
		c14.5-3,24.9-11.9,33.4-23.5c1-1.4,2-2.8,3-4.2c0.2,0.1,0.3,0.2,0.5,0.3c-2.1,8.5-4.2,17.1-6.4,26c11.9,0,23.4-0.1,34.9,0.1
		c2.8,0,3.8-0.9,4.4-3.6c6.3-25.7,12.8-51.4,19.2-77.1c2.4-9.5,4.5-19.2,9.9-27.6c4.9-7.6,11.5-12.7,20.6-14
		c10.2-1.4,22.8,2.4,24.2,17.2c0.5,5.3-0.3,11-1.5,16.2c-2.3,9.9-5.4,19.7-8.1,29.5c-2.7,9.7-6,19.3-5.5,29.6
		c0.6,11.9,4.7,21.9,15.8,27.8c14.3,7.5,34.3,4.9,46-6.2c9.8-9.2,14.7-21.1,18.5-33.9c-5-2-9.9-3.8-14.5-5.6
		c-2.6,5.4-4.9,10.6-7.8,15.5c-1.7,2.9-4.2,5.7-7,7.6c-6,4-12.4,0.5-12.8-6.6c-0.2-2.6-0.1-5.3,0.5-7.8c3.6-13.8,7.3-27.7,11.2-41.4
		c3.9-13.8,6.3-27.6,3.3-42c-4.4-20.9-22.1-33.8-43-31c-12.6,1.7-22.6,8.4-31.2,17.1c-5.4,5.6-10,12-14.9,17.8
		c2.2-10.4,4.6-21.2,7-32.4h-58.7c-2.6,9.5-5.1,19-7.7,28.5C146.4,178.1,146.5,178.6,146.5,179.6L146.5,179.6z M120.1,127.4
		c12.9,0,23.2-10.1,23.3-22.8c0.1-12.7-10.6-23.2-23.5-23.1c-12.9,0-23.1,10.2-23.2,22.9C96.7,117.4,106.9,127.5,120.1,127.4z"/>
</g>
</svg>
