<?xml version="1.0" encoding="utf-8"?>
<!-- Generator: Adobe Illustrator 26.5.0, SVG Export Plug-In . SVG Version: 6.00 Build 0)  -->
<svg version="1.1" id="Capa_1" xmlns="http://www.w3.org/2000/svg" xmlns:xlink="http://www.w3.org/1999/xlink" x="0px" y="0px"
	 viewBox="0 0 384 384" style="enable-background:new 0 0 384 384;" xml:space="preserve">
<style type="text/css">
	.st0{fill:#FFFFFF;}
	.st1{fill:#A7AAAB;}
</style>
<path class="st0" d="M348.1,384c2-0.6,4-1.1,6-1.7c17-5.1,29.2-21.3,29.2-39.2c0-100.5,0-201,0-301.6c0-22.3-18.5-40.7-40.7-40.7
	c-100.5-0.1-201.1,0-301.6,0c-19.5,0-36.3,14-40.2,33.1c-0.1,0.7-0.5,1.3-0.8,2C0,23.9,0,12,0,0c128,0,255.9,0,384,0v384H348.1z"/>
<path class="st0" d="M0,348.8c0.3,1,0.6,2.1,0.9,3.1c4.7,16.9,15.4,27.5,32.6,31.4c0.6,0.1,1.1,0.5,1.6,0.7H0
	C0,372.3,0,360.5,0,348.8z"/>
<path class="st0" d="M135.9,136.5h4.1c31.8,0,63.6,0,95.4,0c9.1,0,12.1,2.9,12.1,12.1c0,31.6,0,63.1,0,94.7v4.4
	c-10,0-18.7-2.8-26.5-8.3c-12.9-9.2-19.6-21.9-19.9-37.8c-0.1-4.9-0.2-9.7,0.1-14.6c0.2-3.5-1.1-4.1-4.3-4.1
	c-8.1-0.1-16.3,0.3-24.2-1.1c-20.5-3.5-36.3-22.3-37-43.1C135.6,138.1,135.8,137.5,135.9,136.5L135.9,136.5z"/>
<path class="st0" d="M298.3,196.2c-9.8,0.4-18.4-2.6-26-8c-12.8-9.1-19.7-21.5-20.1-37.3c-0.1-6.2,0-12.4,0-19.2
	c-6.3,0-12.4,0-18.4,0c-7.6,0-14.8-1.7-21.6-5.1c-15.4-7.7-25.3-23.7-25.3-41.1c1.1-0.1,2.3-0.2,3.5-0.2c32.6,0,65.1,0,97.6,0
	c7.2,0,10.6,3.3,10.6,10.5c0,32.4,0,64.8,0,97.2C298.6,194,298.4,194.9,298.3,196.2z"/>
<path class="st0" d="M196.2,298.9c-13.1-0.1-23.9-4.9-32.9-13.9c-9-9.1-13.2-20.3-13.3-33.1c-0.1-5.7,0-11.4,0-17.6
	c-6.6,0-12.9,0-19.2,0c-18.9-0.1-36.2-11.9-42.8-29.5c-1.9-5.2-2.7-10.8-4.2-16.9h5c32.2,0,64.3,0,96.5,0c8.1,0,11.1,3,11.1,11
	c0,32.2,0,64.3,0,96.5C196.4,296.5,196.3,297.6,196.2,298.9L196.2,298.9z"/>
<path class="st1" d="M357.7,384.1H26.3C11.8,384.1,0,372.3,0,357.8V26.4C0,11.8,11.8,0.1,26.3,0.1h331.4c14.5,0,26.3,11.8,26.3,26.3
	v331.4C384,372.3,372.2,384.1,357.7,384.1z"/>
<path class="st0" d="M136.3,136.3c-0.1,1-0.3,1.6-0.2,2.2c0.8,20.8,16.6,39.6,37.1,43.1c7.9,1.4,16.1,1,24.2,1.1
	c3.2,0,4.5,0.7,4.3,4.1c-0.3,4.8-0.1,9.7-0.1,14.6c0.3,16,7,28.6,19.9,37.8c7.8,5.6,16.5,8.3,26.5,8.3v-4.4c0-31.6,0-63.2,0-94.7
	c0-9.2-2.9-12.1-12.1-12.1c-31.8,0-63.7,0-95.5,0L136.3,136.3L136.3,136.3z M298.9,196.1c0.1-1.3,0.3-2.2,0.3-3.2
	c0-32.4,0-64.9,0-97.3c0-7.2-3.4-10.5-10.6-10.5c-32.6,0-65.2,0-97.7,0c-1.2,0-2.4,0.1-3.5,0.2c0,17.5,10,33.4,25.4,41.2
	c6.8,3.4,14,5.1,21.6,5.1c6.1,0,12.1,0,18.5,0c0,6.8-0.1,13,0,19.2c0.3,15.8,7.3,28.3,20.1,37.3
	C280.5,193.5,289.1,196.4,298.9,196.1L298.9,196.1z M196.6,298.9c0.1-1.4,0.2-2.5,0.2-3.6c0-32.2,0-64.4,0-96.6c0-8-3.1-11-11.1-11
	c-32.2,0-64.4,0-96.6,0h-5c1.5,6.1,2.2,11.7,4.2,16.9c6.6,17.7,24,29.5,42.9,29.6c6.3,0,12.7,0,19.3,0c0,6.2,0,11.9,0,17.6
	c0.1,12.8,4.3,24,13.3,33.1C172.7,294,183.5,298.8,196.6,298.9L196.6,298.9z"/>
</svg>
