<?xml version="1.0" encoding="utf-8"?>
<!-- Generator: Adobe Illustrator 26.5.0, SVG Export Plug-In . SVG Version: 6.00 Build 0)  -->
<svg version="1.1" id="Capa_1" xmlns="http://www.w3.org/2000/svg" xmlns:xlink="http://www.w3.org/1999/xlink" x="0px" y="0px"
	 viewBox="0 0 384 384" style="enable-background:new 0 0 384 384;" xml:space="preserve">
<style type="text/css">
	.st0{fill:#A7AAAB;}
	.st1{fill:#FFFFFF;}
</style>
<path class="st0" d="M357.7,383.9H27.3C12.8,383.9,1,372.1,1,357.6V27.2C1,12.7,12.8,0.9,27.3,0.9h330.4c14.5,0,26.3,11.8,26.3,26.3
	v330.4C384,372.1,372.2,383.9,357.7,383.9z"/>
<g>
	<path class="st1" d="M110.1,222.3c0,1.8,0,3.1,0,4.5c0,15.1-0.1,30.3,0.1,45.4c0,3.5-1,4.6-4.6,4.5c-8.9-0.2-17.8-0.2-26.7,0
		c-3.1,0.1-4-1.1-4-4c0.1-12,0-23.9,0-35.9c0-42.1,0-84.2,0-126.3c0-3.4,1.6-5,4.9-5.1c19.2-0.2,38.4-1,57.6-0.5
		c15,0.4,29,4.7,41,14.4c12.3,10,18.2,23.2,19.2,38.7c0.9,13-0.9,25.7-8.2,36.9c-10.1,15.6-25.1,23.4-43,25.7
		c-10.3,1.3-20.8,1.1-31.2,1.6C113.7,222.3,112.1,222.3,110.1,222.3L110.1,222.3z M110.6,192.5c10.4-0.8,20.3-0.9,29.9-2.6
		c8.7-1.5,16.6-5.8,19.9-14.8c5.8-15.4,1-33.7-19.8-37.3c-8.7-1.5-17.7-1-26.5-1.5c-2.9-0.2-3.9,0.8-3.9,3.9
		c0.1,15.9,0.1,31.8,0.1,47.6C110.4,189,110.5,190.1,110.6,192.5L110.6,192.5z"/>
	<path class="st1" d="M216.2,240.3c6.9,2.5,13.5,5.4,20.4,7.4c9.5,2.8,19.2,3.9,29,2.1c1.7-0.3,3.5-0.8,5.1-1.6
		c4.8-2.4,6-8,2.1-11.7c-2.5-2.4-5.7-4.2-8.9-5.7c-8.5-4-17.3-7.4-25.6-11.6c-9.5-4.9-17.1-12-20.6-22.5
		c-5.8-17.4,2.4-36.6,18.9-45.3c8.8-4.6,18.1-6.4,27.9-6.6c11.6-0.1,23.1,0.4,34.3,4c3.3,1.1,4.7,2.6,4.6,6.2
		c-0.2,7.6-0.1,15.3-0.1,22.9c0,3.6-1.2,4.5-4.4,2.9c-8.9-4.4-18.5-6.4-28.3-6.9c-5-0.3-10.2,0.1-15.1,1.2
		c-6.3,1.4-8.2,8.8-3.1,12.6c5.3,3.9,11.7,6.5,17.7,9.5c6.9,3.4,14.2,6.3,20.9,10c13.6,7.4,20.1,19,18.9,34.6
		c-1.1,14.5-8.5,25-21.3,31.6c-9.4,4.9-19.7,6.5-30.2,6.6c-13.4,0.1-26.7-1.1-39.1-6.5c-1.5-0.7-3.4-2.7-3.4-4.2
		c-0.3-9-0.2-18.1-0.1-27.1C215.7,241.4,216,240.7,216.2,240.3L216.2,240.3z"/>
</g>
</svg>
