<?xml version="1.0" encoding="utf-8"?>
<!-- Generator: Adobe Illustrator 26.5.0, SVG Export Plug-In . SVG Version: 6.00 Build 0)  -->
<svg version="1.1" id="Capa_1" xmlns="http://www.w3.org/2000/svg" xmlns:xlink="http://www.w3.org/1999/xlink" x="0px" y="0px"
	 viewBox="0 0 384 384" style="enable-background:new 0 0 384 384;" xml:space="preserve">
<style type="text/css">
	.st0{fill:#A7AAAB;}
	.st1{fill:#FFFFFF;}
</style>
<path class="st0" d="M357.7,384H26.3C11.8,384,0,372.2,0,357.7V26.3C0,11.8,11.8,0,26.3,0h331.4C372.2,0,384,11.8,384,26.3v331.4
	C384,372.2,372.2,384,357.7,384z"/>
<g>
	<path class="st1" d="M293.7,137.2v-3.6c0-15.1,0.1-30.2-0.1-45.3c0-3.2,0.9-4.1,4.1-4.1c9.3,0.2,18.7,0.2,28,0
		c3.5-0.1,4.2,1.2,4.2,4.4c-0.1,50.1-0.1,100.1,0,150.2c0,6.9,0.5,13.8,0.8,20.7c0.1,2.2-0.3,3.7-2.5,4.5
		c-23.5,8.9-47.6,13-72.5,7.1c-27.8-6.6-44.3-26.9-46.7-55.6c-1.4-17.5,1.7-33.6,11.8-48.1c11.6-16.5,27.9-25.6,47.6-28.4
		C276.6,137.8,284.9,137.8,293.7,137.2L293.7,137.2z M293.5,169.5c-14.1-4.1-30.8,1.1-39.8,11.8c-7.6,9-8.3,19.5-7.5,30.4
		c1.2,15.6,10.6,27.1,25.2,29.8c6,1.1,12.4,0.4,18.7,0.5c3.1,0.1,3.7-1.5,3.7-4.3c-0.1-21.6-0.1-43.2-0.1-64.9
		C293.7,171.7,293.6,170.5,293.5,169.5L293.5,169.5z"/>
	<path class="st1" d="M53.1,99c2-0.2,3.2-0.5,4.5-0.5c11.1,0,22.3-0.1,33.4,0.1c2,0,4.8,1.2,5.6,2.7c10,18.1,19.7,36.4,29.4,54.7
		c1.2,2.2,2.3,4.5,3.6,7.2c0.7-1.1,1.2-1.8,1.6-2.6c10.3-19.7,20.7-39.4,31-59.1c1.1-2.1,2.3-3.1,4.7-3c10.8,0.1,21.5,0,32.3,0.1
		c0.9,0,1.9,0.3,3.4,0.6c-0.9,1.7-1.6,2.9-2.3,4c-15.3,25.3-30.5,50.6-45.9,75.8c-1.5,2.4-1.4,4,0.1,6.4
		c16.4,26.7,32.7,53.4,49,80.2c0.8,1.3,1.5,2.6,2.5,4.5c-1.8,0.1-3,0.3-4.2,0.3c-11.8,0-23.6-0.1-35.3,0.1c-3.5,0.1-5.5-1.2-7.2-4.3
		C149.1,247,138.9,228,128.6,209c-0.5-0.9-1-1.7-1.8-3c-0.9,1.6-1.5,2.8-2.2,4c-10.1,18.9-20.3,37.8-30.3,56.8
		c-1.5,2.8-3.2,3.8-6.3,3.7c-11.8-0.2-23.5-0.1-36.1-0.1c0.9-1.9,1.5-3.4,2.3-4.7c15.7-25.9,31.5-51.8,47.3-77.6
		c1.6-2.5,1.6-4.3,0-6.9c-15.5-25.9-30.8-51.9-46.1-77.9C54.8,102.2,54.2,101,53.1,99L53.1,99z"/>
</g>
</svg>
